<svg xmlns="http://www.w3.org/2000/svg" viewBox="0 0 400 400">
  <path fill="#E535AB" d="M57.468 302.66l-14.376-8.3 160.15-277.38 14.376 8.3z"/>
  <path fill="#E535AB" d="M39.8 272.2h320.3v16.6H39.8z"/>
  <path fill="#E535AB" d="M206.348 374.026l-160.21-92.5 8.3-14.376 160.21 92.5zM345.522 132.9l-160.21-92.5 8.3-14.376 160.21 92.5z"/>
  <path fill="#E535AB" d="M54.482 132.883l-8.3-14.375 160.21-92.5 8.3 14.376z"/>
  <path fill="#E535AB" d="M342.568 302.663l-160.15-277.38 14.376-8.3 160.15 277.38z"/>
  <path fill="#E535AB" d="M39.8 111.2h320.3v16.6H39.8z"/>
  <path fill="#E535AB" d="M206.348 25.974l160.21 92.5-8.3 14.376-160.21-92.5zM67.122 267.1l160.21 92.5-8.3 14.376-160.21-92.5z"/>
  <circle fill="#E535AB" cx="200" cy="367.3" r="28.1"/>
  <circle fill="#E535AB" cx="200" cy="32.7" r="28.1"/>
  <circle fill="#E535AB" cx="359.3" cy="277.6" r="28.1"/>
  <circle fill="#E535AB" cx="40.7" cy="122.4" r="28.1"/>
  <circle fill="#E535AB" cx="359.3" cy="122.4" r="28.1"/>
  <circle fill="#E535AB" cx="40.7" cy="277.6" r="28.1"/>
  <circle fill="#E535AB" cx="200" cy="200" r="28.1"/>
</svg>
