<svg xmlns="http://www.w3.org/2000/svg" viewBox="0 0 128 128">
  <path fill="#CC0000" d="M67.4 30.7C51.7 32.3 38.5 42 32.4 55.8c-2.2 4.9-3.2 9.6-3.2 15.2 0 8.8 2.8 16.8 8.3 23.4 1.3 1.5 4.7 4.8 6.3 6 5.9 4.4 12.7 7.1 20.1 7.9 2.2.2 7.4.2 9.6 0 8.3-.9 15.6-4.2 21.7-9.8 1.5-1.4 4.3-4.6 5.5-6.3 4.6-6.3 6.9-13.7 6.9-21.3 0-5.5-1-10.3-3.2-15.1-5.9-13.4-18.6-22.9-33.4-24.7-2.2-.3-8-.3-9.6-.4zm8.5 6.3c12.3 1.7 22.6 9.8 27.3 21.3 1.7 4.1 2.4 7.7 2.4 12.6 0 4.9-.7 8.5-2.5 12.7-4.8 11.4-15.3 19.4-27.7 21.1-2 .3-7.2.3-9.2 0-9.1-1.3-17.2-5.9-22.9-13-3.1-3.8-5.2-8.2-6.3-13.1-.6-2.7-.7-3.5-.7-7.1 0-3.7.1-4.4.7-7.1 2.4-10.2 9.3-18.8 18.8-23.4 4.2-2 8.2-3.1 13.1-3.4 1.4-.1 5.4 0 7 .4z"/>
  <path fill="#CC0000" d="M58.9 48.3c-5.8 1.4-10.3 5.8-11.8 11.5-.4 1.5-.5 2.1-.5 4.2 0 2.1.1 2.7.5 4.2 1.5 5.8 6.1 10.2 11.9 11.6 1.5.4 2.1.4 4.2.4 2.1 0 2.7 0 4.2-.4 5.8-1.4 10.4-5.8 11.9-11.6.4-1.5.5-2.1.5-4.2 0-2.1-.1-2.7-.5-4.2-1.5-5.8-6.1-10.2-11.9-11.6-1.4-.3-2.1-.4-4.1-.4-1.4.1-3.1.2-4.4.5zm6.8 5.3c3.5.9 6.3 3.4 7.5 6.8.4 1.1.5 1.6.5 3 0 1.4-.1 1.9-.5 3-1.2 3.4-4 6-7.5 6.8-1 .2-3.4.2-4.4 0-3.5-.8-6.3-3.4-7.5-6.8-.4-1.1-.5-1.6-.5-3 0-1.4.1-1.9.5-3 1.2-3.4 4-6 7.5-6.8 1-.3 3.4-.3 4.4 0z"/>
</svg>
